<?xml version="1.0" encoding="utf-8"?>
<svg width="205px" height="70px" viewBox="0 0 205 70" version="1.1" xmlns:xlink="http://www.w3.org/1999/xlink" xmlns="http://www.w3.org/2000/svg">
  <desc>Created with Lunacy</desc>
  <path d="M85.9316 65L0 65L0 0L112.037 0L118.337 13.4509L124.776 0L200 0L200 65L103.603 65L94.6193 46.5329C91.9225 47.4344 89.0266 48.0856 85.9316 48.4865L85.9316 65ZM42.3149 4.4068L42.3149 23.0131L31.0496 23.0131L31.0496 4.4068L6.20157 4.4068L6.20157 60.5932L31.0496 60.5932L31.0496 41.2474L42.3149 41.2474L42.3149 60.5932L79.73 60.5932L79.73 44.6127L82.4864 44.3938C87.0858 44.0284 91.1626 43.0596 94.7167 41.4873L98.0162 40.0276L108.021 60.5932L157.685 60.5932L157.685 41.2474L168.95 41.2474L168.95 60.5932L193.798 60.5932L193.798 4.4068L168.95 4.4068L168.95 23.0131L157.685 23.0131L157.685 4.4068L129.217 4.4068L118.274 27.2679L107.565 4.4068L42.3149 4.4068Z" transform="translate(4.5 4.5)" id="Vector" fill="#69C0FF" fill-rule="evenodd" stroke="none" />
  <path d="M0 9C0 4.02944 4.02944 0 9 0C13.9706 0 18 4.02944 18 9C18 13.9706 13.9706 18 9 18C4.02944 18 0 13.9706 0 9Z" transform="translate(74.5 18.5)" id="Ellipse" fill="#26A5FF" stroke="none" />
</svg>